<svg width="30" height="15" viewBox="0 0 30 15" fill="none" xmlns="http://www.w3.org/2000/svg">
<path d="M13.875 15H7.5C5.425 15 3.65625 14.2688 2.19375 12.8063C0.73125 11.3438 0 9.575 0 7.5C0 5.425 0.73125 3.65625 2.19375 2.19375C3.65625 0.731249 5.425 0 7.5 0H13.875V2.25H7.5C6.05 2.25 4.8125 2.7625 3.7875 3.7875C2.7625 4.8125 2.25 6.05 2.25 7.5C2.25 8.95 2.7625 10.1875 3.7875 11.2125C4.8125 12.2375 6.05 12.75 7.5 12.75H13.875V15ZM9.1875 8.625V6.375H20.8125V8.625H9.1875ZM16.125 15V12.75H22.5C23.95 12.75 25.1875 12.2375 26.2125 11.2125C27.2375 10.1875 27.75 8.95 27.75 7.5C27.75 6.05 27.2375 4.8125 26.2125 3.7875C25.1875 2.7625 23.95 2.25 22.5 2.25H16.125V0H22.5C24.575 0 26.3438 0.731249 27.8063 2.19375C29.2688 3.65625 30 5.425 30 7.5C30 9.575 29.2688 11.3438 27.8063 12.8063C26.3438 14.2688 24.575 15 22.5 15H16.125Z" fill="white"/>
</svg>
