<svg width="30" height="29" viewBox="0 0 30 29" fill="none" xmlns="http://www.w3.org/2000/svg">
<path d="M2.25 28.8462C1.65 28.8462 1.125 28.6184 0.675 28.163C0.225 27.7075 0 27.1761 0 26.5688V8.3502C0 7.74292 0.225 7.21154 0.675 6.75607C1.125 6.30061 1.65 6.07287 2.25 6.07287H9V2.27733C9 1.67004 9.225 1.13866 9.675 0.683198C10.125 0.227733 10.65 0 11.25 0H18.75C19.35 0 19.875 0.227733 20.325 0.683198C20.775 1.13866 21 1.67004 21 2.27733V6.07287H27.75C28.35 6.07287 28.875 6.30061 29.325 6.75607C29.775 7.21154 30 7.74292 30 8.3502V26.5688C30 27.1761 29.775 27.7075 29.325 28.163C28.875 28.6184 28.35 28.8462 27.75 28.8462H2.25ZM11.25 6.07287H18.75V2.27733H11.25V6.07287Z" fill="white"/>
</svg>
